<?xml version="1.0" encoding="utf-8"?>
<!-- Generator: Adobe Illustrator 19.2.1, SVG Export Plug-In . SVG Version: 6.00 Build 0)  -->
<svg version="1.1" id="layer" xmlns="http://www.w3.org/2000/svg" xmlns:xlink="http://www.w3.org/1999/xlink" x="0px" y="0px"
	 viewBox="0 0 652 652" style="enable-background:new 0 0 652 652;" xml:space="preserve">
<style type="text/css">
	.st0{fill:#415364;}
	.st1{fill:#004876;}
	.st2{fill:#A2A9AD;}
</style>
<path class="st0" d="M30.8,372v38.3H22V372H30.8z M41.9,410.3V372h7.7l20.8,24.7V372h8.8v38.3h-7.7l-20.8-24.8v24.8L41.9,410.3
	L41.9,410.3z M103.5,379.5v30.8h-8.8v-30.8h-8.3V372h25.5v7.5L103.5,379.5L103.5,379.5z M140.6,379.5h-12.8v7.4h12.2v7.5h-12.2v8.5
	h12.8v7.5h-21.6V372h21.6V379.5L140.6,379.5z M159.1,372v30.8H171v7.5h-20.7V372H159.1z M187.3,372v30.8h11.9v7.5h-20.7V372H187.3z
	 M215.7,372v38.3h-8.8V372H215.7z M245.2,389.4h19v0.4c0,4.7-1.7,11.7-5.9,16.1c-4.2,4.4-9.1,5.2-13.6,5.2c-4.6,0-9.5-0.7-14-5.3
	c-2.2-2.3-5.6-6.9-5.6-14.6c0-6.2,2.3-11.2,5.5-14.5c4.7-4.9,10.5-5.6,15-5.6c3.2,0,7.2,0.5,10.7,2.9c2.6,1.7,4.8,4.4,6.2,6.8
	l-8,4.3c-0.7-1.5-1.9-3-3.4-4.1c-1.7-1.3-3.7-1.8-5.9-1.8c-3.5,0-6.1,1.1-7.9,3.1c-2.1,2.2-3.3,5.5-3.3,9.1c0,4.4,1.6,7.2,3.2,8.8
	c2.2,2.3,4.8,3,7.7,3c3.8,0,5.8-1.3,6.7-2.1c0.3-0.2,2-1.7,2.8-4.5h-9.2L245.2,389.4L245.2,389.4z M294.9,379.5h-12.8v7.4h12.2v7.5
	h-12.2v8.5h12.8v7.5h-21.6V372h21.6V379.5z M304.6,410.3V372h7.7l20.8,24.7V372h8.8v38.3h-7.7l-20.8-24.8v24.8H304.6L304.6,410.3z
	 M366.2,379.5v30.8h-8.8v-30.8H349V372h25.5v7.5L366.2,379.5L366.2,379.5z M396.9,410.3l6.4-40.4l14.7,32.3l15-32.3l6,40.4h-4.4
	l-3.6-26.6l-13,28.2l-12.8-28.2l-3.8,26.6L396.9,410.3L396.9,410.3L396.9,410.3z M448.2,391.2c0-11.4,8.9-19.8,19.9-19.8
	s19.9,8.4,19.9,19.8c0,11.4-8.8,19.8-19.9,19.8S448.2,402.6,448.2,391.2z M452.6,391.2c0,8.8,6.9,15.8,15.5,15.8
	c8.6,0,15.5-7,15.5-15.8c0-8.8-6.9-15.8-15.5-15.8C459.5,375.4,452.6,382.4,452.6,391.2z M505.7,376v34.2h-4.2V376h-9.3v-4H515v4
	H505.7z M527.5,372v38.3h-4.2v-19.1V372H527.5z M537.8,391.2c0-11.4,8.9-19.8,19.9-19.8c11,0,19.9,8.4,19.9,19.8
	c0,11.4-8.8,19.8-19.9,19.8S537.8,402.6,537.8,391.2z M542.2,391.2c0,8.8,6.9,15.8,15.5,15.8c8.6,0,15.5-7,15.5-15.8
	c0-8.8-6.9-15.8-15.5-15.8C549.1,375.4,542.2,382.4,542.2,391.2z M587.9,410.3v-39.9l29.8,31.3V372h4.2v40l-29.8-31.3v29.5
	L587.9,410.3L587.9,410.3z M162.7,439.4c-1-1-2.6-2.2-4.2-3c-1.7-0.8-3.7-1.3-5.6-1.3c-7.5,0-13,6-13,13.5c0,8.8,7.1,13.2,13.1,13.2
	c2.2,0,4.3-0.6,6-1.5c1.8-0.9,3.2-2.1,3.7-2.7v4.5c-3.6,2.6-7.3,3.2-9.8,3.2c-9.6,0-16.8-7.3-16.8-16.7c0-9.7,7.2-16.9,17-16.9
	c1.9,0,5.7,0.2,9.6,3.2V439.4L162.7,439.4z M166.3,454.7c0-6.1,4.5-10.7,10.7-10.7c6.2,0,10.7,4.5,10.7,10.7
	c0,6.1-4.6,10.6-10.7,10.6C170.8,465.3,166.3,460.8,166.3,454.7z M169.9,454.7c0,5,3.5,7.5,7.1,7.5c3.6,0,7.1-2.6,7.1-7.5
	c0-5-3.4-7.5-7.1-7.5C173.3,447.1,169.9,449.8,169.9,454.7z M195.5,429.2v35.5H192v-35.5H195.5L195.5,429.2z M204.7,456.3
	c0,1.4,0,3.1,1,4.3c0.5,0.7,1.6,1.6,3.6,1.6s3-0.9,3.6-1.6c1-1.3,1-2.9,1-4.3v-11.8h3.5v12.2c0,2.5-0.2,4.3-1.8,6.1
	c-1.8,1.9-4.2,2.5-6.2,2.5c-2,0-4.4-0.6-6.2-2.5c-1.6-1.8-1.8-3.6-1.8-6.1v-12.2h3.5L204.7,456.3L204.7,456.3z M222.9,444.5h3.5v2.1
	c1.1-1.7,2.9-2.6,5-2.6c3.6,0,5.1,2.6,5.5,3.3c1.9-3.1,4.7-3.3,6.1-3.3c6,0,6.6,5,6.6,7.9v12.8H246v-12.3c0-2.3-0.3-5.3-3.6-5.3
	c-4,0-4.5,3.9-4.5,6.3v11.2h-3.5v-12c0-1.4,0-5.6-3.6-5.6c-4,0-4.4,4.1-4.4,6.6v11h-3.5L222.9,444.5L222.9,444.5L222.9,444.5z
	 M258.7,464.7h-3.5v-35.5h3.5v18.1c2.4-3,5.5-3.3,6.9-3.3c6.3,0,9.8,5.3,9.8,10.7c0,5.5-3.6,10.6-9.7,10.6c-3.3,0-5.5-1.5-7.1-3.4
	L258.7,464.7L258.7,464.7L258.7,464.7z M271.9,454.7c0-5-3.4-7.6-6.6-7.6c-3.2,0-6.7,2.7-6.7,7.5c0,4.1,2.6,7.5,6.8,7.5
	C269.4,462.2,271.9,458.8,271.9,454.7z M283.4,456.3c0,1.4,0,3.1,1,4.3c0.5,0.7,1.6,1.6,3.6,1.6c1.9,0,3-0.9,3.6-1.6
	c1-1.3,1-2.9,1-4.3v-11.8h3.5v12.2c0,2.5-0.2,4.3-1.8,6.1c-1.8,1.9-4.2,2.5-6.2,2.5c-2,0-4.4-0.6-6.2-2.5c-1.6-1.8-1.8-3.6-1.8-6.1
	v-12.2h3.5L283.4,456.3L283.4,456.3z M309.9,449.2c-0.5-1.2-1.5-2-2.8-2c-1.3,0-2.4,0.7-2.4,2.3c0,1.5,1,1.9,3.3,2.9
	c2.9,1.2,4.3,2.1,5.1,3.1c0.9,1.1,1.1,2.1,1.1,3.3c0,4.2-3.1,6.6-7,6.6c-0.8,0-5.4-0.1-7.1-5.2l3-1.3c0.4,1.1,1.6,3.3,4.1,3.3
	c2.3,0,3.3-1.7,3.3-3.2c0-1.9-1.4-2.5-3.3-3.4c-2.4-1.1-4-1.8-4.9-3c-0.8-1-0.9-1.9-0.9-3c0-3.5,2.5-5.6,5.9-5.6
	c1.1,0,3.9,0.2,5.5,3.7L309.9,449.2z M327.8,464.7l5.4-34.3l12.5,27.4l12.7-27.4l5.1,34.3h-3.7l-3.1-22.6l-11,23.9l-10.9-23.9
	l-3.2,22.6L327.8,464.7L327.8,464.7L327.8,464.7z M384.9,450.2c-1.8-2.3-4.5-3-6.3-3c-3.7,0-7.1,2.6-7.1,7.5c0,4.9,3.5,7.5,7.1,7.5
	c2.1,0,4.7-0.9,6.5-3.2v4.2c-2.2,1.6-4.5,2.1-6.4,2.1c-6.3,0-10.8-4.5-10.8-10.6c0-6.2,4.6-10.7,10.8-10.7c3.2,0,5.3,1.3,6.3,1.9
	L384.9,450.2L384.9,450.2L384.9,450.2z M393.9,446.2l13.8-13.9h4.9l-15.2,15.1l15.7,17.3h-5l-13.3-14.9l-0.9,0.9v14h-3.6v-32.4h3.6
	L393.9,446.2L393.9,446.2z M417.8,434.4c1.4,0,2.5,1.1,2.5,2.5c0,1.4-1.1,2.5-2.5,2.5s-2.5-1.1-2.5-2.5
	C415.4,435.5,416.5,434.4,417.8,434.4z M419.6,444.5v20.2h-3.5v-20.2L419.6,444.5L419.6,444.5z M425.2,444.5h3.5v2.3
	c0.6-0.8,2.4-2.8,5.8-2.8c2.4,0,4.6,1,5.8,2.8c1,1.5,1.2,3.2,1.2,5.4v12.5H438v-12.4c0-1.2-0.1-2.6-0.9-3.7
	c-0.7-0.9-1.8-1.5-3.3-1.5c-1.2,0-2.5,0.3-3.6,1.6c-1.4,1.6-1.5,4-1.5,5.5v10.6h-3.5L425.2,444.5L425.2,444.5L425.2,444.5z
	 M447.1,444.5h3.5v2.3c0.6-0.8,2.4-2.8,5.8-2.8c2.4,0,4.6,1,5.8,2.8c1,1.5,1.2,3.2,1.2,5.4v12.5h-3.5v-12.4c0-1.2-0.1-2.6-0.9-3.7
	c-0.7-0.9-1.8-1.5-3.3-1.5c-1.2,0-2.5,0.3-3.6,1.6c-1.4,1.6-1.5,4-1.5,5.5v10.6h-3.5L447.1,444.5L447.1,444.5L447.1,444.5z
	 M467.8,454.7c0-6.1,4.5-10.7,10.7-10.7s10.7,4.5,10.7,10.7c0,6.1-4.6,10.6-10.7,10.6S467.8,460.8,467.8,454.7z M471.4,454.7
	c0,5,3.5,7.5,7.1,7.5c3.6,0,7.1-2.6,7.1-7.5c0-5-3.4-7.5-7.1-7.5C474.8,447.1,471.4,449.8,471.4,454.7z M493.5,444.5h3.5v2.3
	c0.6-0.8,2.4-2.8,5.8-2.8c2.4,0,4.6,1,5.8,2.8c1,1.5,1.2,3.2,1.2,5.4v12.5h-3.5v-12.4c0-1.2-0.1-2.6-0.9-3.7
	c-0.7-0.9-1.8-1.5-3.3-1.5c-1.2,0-2.5,0.3-3.6,1.6c-1.4,1.6-1.5,4-1.5,5.5v10.6h-3.5L493.5,444.5L493.5,444.5L493.5,444.5z"/>
<path class="st0" d="M247.7,184.1h-53c0,0-47.8,92.7-47.9,92.8c-0.6,1.3-3.6,6.1-3.6,6.1c-0.8,1.2-1.2,1.8-1.3,2
	c-7.7,11.2-20.2,18-33.9,18c-22.6,0-41-18.4-41-41s18.4-41,41-41c12.3,0,23.8,5.5,31.7,15l21-41.9c-14.9-11.6-33.4-18-52.7-18
	c-47.4,0-86,38.6-86,86s38.6,86,86,86c29.4,0,56.5-14.8,72.4-39.6c0.3-0.4,0.7-1.1,2.4-4.1l36.2-69.4l39.8,81.5l25.2-52.9
	L247.7,184.1z"/>
<polygon class="st1" points="388.6,346.9 314.2,184.1 261.4,184.1 335.7,346.9 "/>
<path class="st2" d="M394.8,175.9c-23.1,0-44.1,9.3-59.5,24.4l21.4,46.8c5.6-15.6,20.6-26.8,38.1-26.8c12.1,0,23.5,5.4,31.3,14.8
	l20.8-41.3C432.2,182.3,414,175.9,394.8,175.9z M536,175.9c-30.1,0-56.5,15.5-71.9,38.9c-4.8,7-11.5,20.2-14.1,27
	c-1.8,4.6-13.3,29.8-21,41.6c-7.7,11.8-20.3,18.7-34.1,18.7c-5,0-9.7-0.9-14.1-2.6l20.8,45.5l0.5,1.1c25.3-2.1,48.2-15.4,62.7-36.4
	c15.4,23,41.7,38.1,71.4,38.1c47.4,0,86-38.6,86-86S583.4,175.9,536,175.9z M536,305.5c-24,0-43.6-19.5-43.6-43.6
	s19.5-43.6,43.6-43.6c24,0,43.6,19.5,43.6,43.6C579.6,285.9,560.1,305.5,536,305.5z"/>
</svg>
