<?xml version="1.0" encoding="UTF-8"?>
<svg xmlns="http://www.w3.org/2000/svg" xmlns:xlink="http://www.w3.org/1999/xlink" width="150px" height="70px" viewBox="0 0 900 469" version="1.1">
<defs>
<filter id="alpha" filterUnits="objectBoundingBox" x="0%" y="0%" width="100%" height="100%">
  <feColorMatrix type="matrix" in="SourceGraphic" values="0 0 0 0 1 0 0 0 0 1 0 0 0 0 1 0 0 0 1 0"/>
</filter>
<mask id="mask0">
  <g filter="url(#alpha)">
<rect x="0" y="0" width="900" height="469" style="fill:rgb(0%,0%,0%);fill-opacity:0.988235;stroke:none;"/>
  </g>
</mask>
<clipPath id="clip1">
  <rect x="0" y="0" width="900" height="469"/>
</clipPath>
<g id="surface5" clip-path="url(#clip1)">
<path style=" stroke:none;fill-rule:evenodd;fill:rgb(12.941176%,31.372549%,65.882353%);fill-opacity:1;" d="M 193.875 1.875 C 222.410156 0.484375 250.039062 4.738281 276.75 14.632812 C 277.117188 15.601562 277.242188 16.605469 277.125 17.632812 C 232.140625 21.59375 187.140625 25.46875 142.125 29.265625 C 203.105469 34.390625 264.105469 39.269531 325.125 43.898438 C 325.125 45.148438 325.125 46.398438 325.125 47.652344 C 254.871094 50.085938 184.621094 52.710938 114.375 55.53125 C 191.878906 60.40625 269.378906 65.285156 346.875 70.164062 C 346.875 71.414062 346.875 72.664062 346.875 73.914062 C 262.871094 77.398438 178.871094 81.027344 94.875 84.796875 C 186.382812 89.136719 277.882812 93.515625 369.375 97.925781 C 369.375 99.179688 369.375 100.429688 369.375 101.679688 C 275.101562 105.078125 180.851562 108.957031 86.625 113.308594 C 182.136719 117.0625 277.636719 120.941406 373.125 124.941406 C 373.328125 126.40625 372.832031 127.53125 371.625 128.320312 C 276.125 131.585938 180.625 134.839844 85.125 138.074219 C 187.34375 142.660156 289.59375 146.789062 391.875 150.457031 C 391.875 151.707031 391.875 152.957031 391.875 154.207031 C 285.617188 157.886719 179.371094 161.761719 73.125 165.839844 C 181.402344 169.316406 289.652344 173.191406 397.875 177.46875 C 397.875 188.226562 397.875 198.980469 397.875 209.738281 C 387.875 209.738281 377.875 209.738281 367.875 209.738281 C 367.875 224.746094 367.875 239.753906 367.875 254.761719 C 378.375 254.761719 388.875 254.761719 399.375 254.761719 C 399.375 266.015625 399.375 277.273438 399.375 288.527344 C 389.125 288.527344 378.875 288.527344 368.625 288.527344 C 368.625 314.792969 368.625 341.058594 368.625 367.320312 C 354.125 367.320312 339.625 367.320312 325.125 367.320312 C 325.125 368.570312 325.125 369.820312 325.125 371.074219 C 267.09375 374.074219 209.09375 377.578125 151.125 381.578125 C 194.308594 386.300781 237.558594 390.304688 280.875 393.585938 C 281.035156 394.820312 280.785156 395.945312 280.125 396.960938 C 220.96875 418.585938 163.46875 414.832031 107.625 385.707031 C 47.199219 350.265625 12.324219 297.609375 3 227.746094 C -2.585938 149.632812 25.539062 86.972656 87.375 39.769531 C 119.46875 17.519531 154.96875 4.886719 193.875 1.875 Z M 308.625 183.472656 C 313.625 183.472656 318.625 183.472656 323.625 183.472656 C 323.625 189.976562 323.625 196.480469 323.625 202.984375 C 239.578125 200.355469 155.578125 197.226562 71.625 193.601562 C 150.753906 190.472656 229.753906 187.09375 308.625 183.472656 Z M 304.875 211.988281 C 311.125 211.988281 317.375 211.988281 323.625 211.988281 C 323.625 217.742188 323.625 223.492188 323.625 229.246094 C 242.386719 226.449219 161.136719 223.824219 79.875 221.367188 C 154.9375 217.988281 229.9375 214.863281 304.875 211.988281 Z M 306.375 236 C 312.125 236 317.875 236 323.625 236 C 323.625 242.503906 323.625 249.007812 323.625 255.511719 C 239.878906 252.625 156.128906 249.75 72.375 246.882812 C 150.476562 243.101562 228.476562 239.472656 306.375 236 Z M 316.875 264.515625 C 319.125 264.515625 321.375 264.515625 323.625 264.515625 C 323.875 271.289062 323.625 278.042969 322.875 284.777344 C 243.660156 281.417969 164.410156 278.292969 85.125 275.398438 C 162.390625 271.539062 239.640625 267.914062 316.875 264.515625 Z M 307.125 291.53125 C 312.625 291.53125 318.125 291.53125 323.625 291.53125 C 323.625 298.285156 323.625 305.039062 323.625 311.792969 C 244.875 308.476562 166.125 305.101562 87.375 301.660156 C 160.738281 298.257812 233.988281 294.882812 307.125 291.53125 Z M 313.125 319.296875 C 316.625 319.296875 320.125 319.296875 323.625 319.296875 C 323.625 325.800781 323.625 332.300781 323.625 338.804688 C 252.109375 335.992188 180.609375 332.867188 109.125 329.425781 C 177.253906 326.269531 245.253906 322.894531 313.125 319.296875 Z M 310.875 345.558594 C 315.125 345.558594 319.375 345.558594 323.625 345.558594 C 323.625 352.8125 323.625 360.066406 323.625 367.320312 C 256.636719 363.121094 189.636719 358.992188 122.625 354.9375 C 185.4375 351.605469 248.1875 348.476562 310.875 345.558594 Z M 310.875 345.558594 "/>
</g>
<mask id="mask1">
  <g filter="url(#alpha)">
<rect x="0" y="0" width="900" height="469" style="fill:rgb(0%,0%,0%);fill-opacity:0.984314;stroke:none;"/>
  </g>
</mask>
<clipPath id="clip2">
  <rect x="0" y="0" width="900" height="469"/>
</clipPath>
<g id="surface8" clip-path="url(#clip2)">
<path style=" stroke:none;fill-rule:evenodd;fill:rgb(12.941176%,31.764706%,65.490196%);fill-opacity:1;" d="M 576.375 211.988281 C 593.199219 211.703125 604.324219 219.457031 609.75 235.25 C 610.859375 279.246094 611.234375 323.269531 610.875 367.320312 C 597.125 367.320312 583.375 367.320312 569.625 367.320312 C 569.75 326.546875 569.625 285.777344 569.25 245.003906 C 565.289062 239.011719 561.289062 239.011719 557.25 245.003906 C 556.875 285.777344 556.75 326.546875 556.875 367.320312 C 543.125 367.320312 529.375 367.320312 515.625 367.320312 C 515.625 316.042969 515.625 264.765625 515.625 213.488281 C 529.625 213.488281 543.625 213.488281 557.625 213.488281 C 557.5 215.753906 557.625 218.003906 558 220.242188 C 563.5 215.921875 569.625 213.171875 576.375 211.988281 Z M 576.375 211.988281 "/>
</g>
<mask id="mask2">
  <g filter="url(#alpha)">
<rect x="0" y="0" width="900" height="469" style="fill:rgb(0%,0%,0%);fill-opacity:0.992157;stroke:none;"/>
  </g>
</mask>
<clipPath id="clip3">
  <rect x="0" y="0" width="900" height="469"/>
</clipPath>
<g id="surface11" clip-path="url(#clip3)">
<path style=" stroke:none;fill-rule:evenodd;fill:rgb(12.941176%,31.372549%,65.882353%);fill-opacity:1;" d="M 436.125 212.738281 C 450.128906 212.613281 464.128906 212.738281 478.125 213.113281 C 492.84375 215.585938 501.21875 224.214844 503.25 239.003906 C 503.777344 259.019531 503.652344 279.03125 502.875 299.035156 C 485.375 299.035156 467.875 299.035156 450.375 299.035156 C 450.25 310.292969 450.375 321.550781 450.75 332.800781 C 453.851562 338.074219 457.601562 338.574219 462 334.304688 C 463.082031 327.378906 463.457031 320.375 463.125 313.292969 C 476.625 313.292969 490.125 313.292969 503.625 313.292969 C 503.929688 325.582031 503.554688 337.835938 502.5 350.0625 C 497.257812 359.800781 489.132812 365.429688 478.125 366.945312 C 462.851562 367.628906 447.601562 367.378906 432.375 366.195312 C 420.742188 362.820312 413.617188 355.191406 411 343.308594 C 410.5 307.539062 410.5 271.769531 411 236 C 414.515625 222.851562 422.890625 215.097656 436.125 212.738281 Z M 454.125 243.503906 C 457.941406 242.699219 460.816406 243.953125 462.75 247.257812 C 463.125 254.007812 463.25 260.757812 463.125 267.519531 C 458.875 267.519531 454.625 267.519531 450.375 267.519531 C 450.25 260.757812 450.375 254.007812 450.75 247.257812 C 451.519531 245.617188 452.644531 244.363281 454.125 243.503906 Z M 454.125 243.503906 "/>
</g>
<mask id="mask3">
  <g filter="url(#alpha)">
<rect x="0" y="0" width="900" height="469" style="fill:rgb(0%,0%,0%);fill-opacity:0.992157;stroke:none;"/>
  </g>
</mask>
<clipPath id="clip4">
  <rect x="0" y="0" width="900" height="469"/>
</clipPath>
<g id="surface14" clip-path="url(#clip4)">
<path style=" stroke:none;fill-rule:evenodd;fill:rgb(12.941176%,31.764706%,65.882353%);fill-opacity:1;" d="M 682.125 211.988281 C 698.621094 211.625 709.746094 219.128906 715.5 234.5 C 716.609375 278.746094 716.984375 323.019531 716.625 367.320312 C 702.875 367.320312 689.125 367.320312 675.375 367.320312 C 675.5 326.296875 675.375 285.277344 675 244.253906 C 672.742188 240.476562 669.613281 239.601562 665.625 241.628906 C 664.132812 242.617188 663.257812 243.992188 663 245.757812 C 662.625 286.277344 662.5 326.796875 662.625 367.320312 C 649.125 367.320312 635.625 367.320312 622.125 367.320312 C 622.125 316.042969 622.125 264.765625 622.125 213.488281 C 635.875 213.488281 649.625 213.488281 663.375 213.488281 C 663.25 215.753906 663.375 218.003906 663.75 220.242188 C 669.25 215.921875 675.375 213.171875 682.125 211.988281 Z M 682.125 211.988281 "/>
</g>
<mask id="mask4">
  <g filter="url(#alpha)">
<rect x="0" y="0" width="900" height="469" style="fill:rgb(0%,0%,0%);fill-opacity:0.996078;stroke:none;"/>
  </g>
</mask>
<clipPath id="clip5">
  <rect x="0" y="0" width="900" height="469"/>
</clipPath>
<g id="surface17" clip-path="url(#clip5)">
<path style=" stroke:none;fill-rule:evenodd;fill:rgb(12.941176%,31.372549%,65.490196%);fill-opacity:1;" d="M 756.375 212.738281 C 771.90625 212.417969 787.402344 212.792969 802.875 213.863281 C 813.5625 217.300781 820.433594 224.429688 823.5 235.25 C 823.875 256.511719 824.003906 277.773438 823.875 299.035156 C 806.378906 299.035156 788.871094 299.035156 771.375 299.035156 C 771.023438 311.113281 771.398438 323.121094 772.5 335.054688 C 777.921875 338.859375 781.671875 337.609375 783.75 331.300781 C 784.125 325.304688 784.253906 319.300781 784.125 313.292969 C 797.378906 313.292969 810.621094 313.292969 823.875 313.292969 C 824.003906 325.050781 823.875 336.808594 823.5 348.5625 C 820.695312 356.125 815.566406 361.503906 808.125 364.695312 C 805.671875 365.597656 803.167969 366.347656 800.625 366.945312 C 785.625 367.445312 770.625 367.445312 755.625 366.945312 C 743.085938 364.15625 735.210938 356.527344 732 344.058594 C 731.5 307.789062 731.5 271.519531 732 235.25 C 735.707031 222.910156 743.832031 215.40625 756.375 212.738281 Z M 775.125 243.503906 C 779.296875 242.550781 782.167969 244.054688 783.75 248.007812 C 784.125 254.503906 784.253906 261.007812 784.125 267.519531 C 779.625 267.519531 775.125 267.519531 770.625 267.519531 C 770.496094 261.507812 770.625 255.507812 771 249.507812 C 771.464844 246.800781 772.84375 244.796875 775.125 243.503906 Z M 775.125 243.503906 "/>
</g>
<mask id="mask5">
  <g filter="url(#alpha)">
<rect x="0" y="0" width="900" height="469" style="fill:rgb(0%,0%,0%);fill-opacity:0.988235;stroke:none;"/>
  </g>
</mask>
<clipPath id="clip6">
  <rect x="0" y="0" width="900" height="469"/>
</clipPath>
<g id="surface20" clip-path="url(#clip6)">
<path style=" stroke:none;fill-rule:evenodd;fill:rgb(12.941176%,31.764706%,65.490196%);fill-opacity:1;" d="M 889.875 212.738281 C 891.621094 212.738281 893.378906 212.738281 895.125 212.738281 C 895.125 226.496094 895.125 240.253906 895.125 254.011719 C 887.78125 253.242188 882.660156 256.246094 879.75 263.015625 C 879.375 297.78125 879.246094 332.550781 879.375 367.320312 C 865.371094 367.320312 851.378906 367.320312 837.375 367.320312 C 837.375 316.042969 837.375 264.765625 837.375 213.488281 C 849.128906 213.488281 860.871094 213.488281 872.625 213.488281 C 872.390625 215.550781 872.640625 217.550781 873.375 219.492188 C 878.347656 215.753906 883.84375 213.503906 889.875 212.738281 Z M 889.875 212.738281 "/>
</g>
<mask id="mask6">
  <g filter="url(#alpha)">
<rect x="0" y="0" width="900" height="469" style="fill:rgb(0%,0%,0%);fill-opacity:0.988235;stroke:none;"/>
  </g>
</mask>
<clipPath id="clip7">
  <rect x="0" y="0" width="900" height="469"/>
</clipPath>
<g id="surface23" clip-path="url(#clip7)">
<path style=" stroke:none;fill-rule:evenodd;fill:rgb(12.941176%,31.372549%,65.882353%);fill-opacity:1;" d="M 323.625 404.089844 C 326.375 404.089844 329.125 404.089844 331.875 404.089844 C 331.875 420.347656 331.875 436.609375 331.875 452.867188 C 329.125 452.867188 326.375 452.867188 323.625 452.867188 C 323.625 436.609375 323.625 420.347656 323.625 404.089844 Z M 323.625 404.089844 "/>
</g>
<mask id="mask7">
  <g filter="url(#alpha)">
<rect x="0" y="0" width="900" height="469" style="fill:rgb(0%,0%,0%);fill-opacity:0.972549;stroke:none;"/>
  </g>
</mask>
<clipPath id="clip8">
  <rect x="0" y="0" width="900" height="469"/>
</clipPath>
<g id="surface26" clip-path="url(#clip8)">
<path style=" stroke:none;fill-rule:evenodd;fill:rgb(12.941176%,31.372549%,65.882353%);fill-opacity:1;" d="M 451.875 404.089844 C 454.625 404.089844 457.375 404.089844 460.125 404.089844 C 460.125 406.589844 460.125 409.09375 460.125 411.59375 C 457.375 411.59375 454.625 411.59375 451.875 411.59375 C 451.875 409.09375 451.875 406.589844 451.875 404.089844 Z M 451.875 404.089844 "/>
</g>
<mask id="mask8">
  <g filter="url(#alpha)">
<rect x="0" y="0" width="900" height="469" style="fill:rgb(0%,0%,0%);fill-opacity:0.952941;stroke:none;"/>
  </g>
</mask>
<clipPath id="clip9">
  <rect x="0" y="0" width="900" height="469"/>
</clipPath>
<g id="surface29" clip-path="url(#clip9)">
<path style=" stroke:none;fill-rule:evenodd;fill:rgb(12.941176%,31.372549%,65.490196%);fill-opacity:1;" d="M 499.875 404.089844 C 502.375 404.089844 504.875 404.089844 507.375 404.089844 C 507.375 406.589844 507.375 409.09375 507.375 411.59375 C 504.875 411.59375 502.375 411.59375 499.875 411.59375 C 499.875 409.09375 499.875 406.589844 499.875 404.089844 Z M 499.875 404.089844 "/>
</g>
<mask id="mask9">
  <g filter="url(#alpha)">
<rect x="0" y="0" width="900" height="469" style="fill:rgb(0%,0%,0%);fill-opacity:0.984314;stroke:none;"/>
  </g>
</mask>
<clipPath id="clip10">
  <rect x="0" y="0" width="900" height="469"/>
</clipPath>
<g id="surface32" clip-path="url(#clip10)">
<path style=" stroke:none;fill-rule:evenodd;fill:rgb(12.54902%,31.764706%,65.490196%);fill-opacity:1;" d="M 679.125 404.089844 C 681.875 404.089844 684.625 404.089844 687.375 404.089844 C 687.25 417.851562 687.375 431.609375 687.75 445.363281 C 689.789062 446.070312 691.914062 446.320312 694.125 446.113281 C 694.125 448.363281 694.125 450.613281 694.125 452.867188 C 690.550781 453.097656 687.050781 452.722656 683.625 451.742188 C 682.214844 450.582031 681.089844 449.207031 680.25 447.613281 C 679.164062 433.148438 678.789062 418.640625 679.125 404.089844 Z M 679.125 404.089844 "/>
</g>
<mask id="mask10">
  <g filter="url(#alpha)">
<rect x="0" y="0" width="900" height="469" style="fill:rgb(0%,0%,0%);fill-opacity:0.952941;stroke:none;"/>
  </g>
</mask>
<clipPath id="clip11">
  <rect x="0" y="0" width="900" height="469"/>
</clipPath>
<g id="surface35" clip-path="url(#clip11)">
<path style=" stroke:none;fill-rule:evenodd;fill:rgb(12.941176%,31.372549%,65.490196%);fill-opacity:1;" d="M 762.375 404.089844 C 764.871094 404.089844 767.378906 404.089844 769.875 404.089844 C 769.875 406.589844 769.875 409.09375 769.875 411.59375 C 767.378906 411.59375 764.871094 411.59375 762.375 411.59375 C 762.375 409.09375 762.375 406.589844 762.375 404.089844 Z M 762.375 404.089844 "/>
</g>
<mask id="mask11">
  <g filter="url(#alpha)">
<rect x="0" y="0" width="900" height="469" style="fill:rgb(0%,0%,0%);fill-opacity:0.952941;stroke:none;"/>
  </g>
</mask>
<clipPath id="clip12">
  <rect x="0" y="0" width="900" height="469"/>
</clipPath>
<g id="surface38" clip-path="url(#clip12)">
<path style=" stroke:none;fill-rule:evenodd;fill:rgb(12.941176%,31.764706%,65.882353%);fill-opacity:1;" d="M 739.875 407.84375 C 742.375 407.84375 744.875 407.84375 747.375 407.84375 C 747.375 411.34375 747.375 414.847656 747.375 418.347656 C 749.625 418.347656 751.875 418.347656 754.125 418.347656 C 754.125 420.347656 754.125 422.351562 754.125 424.351562 C 751.875 424.351562 749.625 424.351562 747.375 424.351562 C 747.25 430.859375 747.375 437.363281 747.75 443.863281 C 748.03125 444.550781 748.40625 445.175781 748.875 445.738281 C 750.609375 446.109375 752.355469 446.234375 754.125 446.113281 C 754.125 448.363281 754.125 450.613281 754.125 452.867188 C 748.804688 453.910156 744.429688 452.410156 741 448.363281 C 739.929688 440.417969 739.554688 432.414062 739.875 424.351562 C 738.625 424.351562 737.375 424.351562 736.125 424.351562 C 736.125 422.351562 736.125 420.347656 736.125 418.347656 C 737.375 418.347656 738.625 418.347656 739.875 418.347656 C 739.875 414.847656 739.875 411.34375 739.875 407.84375 Z M 739.875 407.84375 "/>
</g>
<mask id="mask12">
  <g filter="url(#alpha)">
<rect x="0" y="0" width="900" height="469" style="fill:rgb(0%,0%,0%);fill-opacity:0.960784;stroke:none;"/>
  </g>
</mask>
<clipPath id="clip13">
  <rect x="0" y="0" width="900" height="469"/>
</clipPath>
<g id="surface41" clip-path="url(#clip13)">
<path style=" stroke:none;fill-rule:evenodd;fill:rgb(12.941176%,31.764706%,65.490196%);fill-opacity:1;" d="M 342.375 417.597656 C 344.875 417.597656 347.375 417.597656 349.875 417.597656 C 349.757812 418.628906 349.882812 419.628906 350.25 420.597656 C 354.75 417.433594 359.625 416.808594 364.875 418.722656 C 367.542969 420.144531 369.417969 422.269531 370.5 425.101562 C 370.875 434.351562 371 443.609375 370.875 452.867188 C 368.375 452.867188 365.875 452.867188 363.375 452.867188 C 363.5 444.609375 363.375 436.355469 363 428.101562 C 360.058594 424.015625 356.433594 423.390625 352.125 426.226562 C 351.65625 426.789062 351.28125 427.414062 351 428.101562 C 350.625 436.355469 350.5 444.609375 350.625 452.867188 C 347.875 452.867188 345.125 452.867188 342.375 452.867188 C 342.375 441.109375 342.375 429.355469 342.375 417.597656 Z M 342.375 417.597656 "/>
</g>
<mask id="mask13">
  <g filter="url(#alpha)">
<rect x="0" y="0" width="900" height="469" style="fill:rgb(0%,0%,0%);fill-opacity:0.952941;stroke:none;"/>
  </g>
</mask>
<clipPath id="clip14">
  <rect x="0" y="0" width="900" height="469"/>
</clipPath>
<g id="surface44" clip-path="url(#clip14)">
<path style=" stroke:none;fill-rule:evenodd;fill:rgb(12.941176%,31.764706%,65.882353%);fill-opacity:1;" d="M 388.125 417.597656 C 391.632812 417.472656 395.132812 417.597656 398.625 417.972656 C 401.535156 418.429688 404.035156 419.679688 406.125 421.726562 C 404.5 423.351562 402.875 424.976562 401.25 426.601562 C 397.34375 424.136719 393.21875 423.511719 388.875 424.726562 C 386.03125 426.851562 386.03125 428.851562 388.875 430.730469 C 393.109375 431.527344 397.359375 432.277344 401.625 432.980469 C 406.601562 435.996094 408.226562 440.371094 406.5 446.113281 C 405.625 448.988281 403.75 450.863281 400.875 451.742188 C 393.679688 454.214844 386.679688 453.714844 379.875 450.238281 C 379.125 449.488281 378.375 448.738281 377.625 447.988281 C 379.261719 446.226562 381.011719 444.597656 382.875 443.109375 C 387.953125 447.324219 393.328125 447.824219 399 444.613281 C 399.570312 442.910156 399.441406 441.285156 398.625 439.734375 C 394.453125 438.679688 390.203125 437.929688 385.875 437.484375 C 381.621094 435.972656 379.371094 432.972656 379.125 428.476562 C 379.625 425.988281 380.5 423.609375 381.75 421.347656 C 383.761719 419.785156 385.886719 418.535156 388.125 417.597656 Z M 388.125 417.597656 "/>
</g>
<mask id="mask14">
  <g filter="url(#alpha)">
<rect x="0" y="0" width="900" height="469" style="fill:rgb(0%,0%,0%);fill-opacity:0.956863;stroke:none;"/>
  </g>
</mask>
<clipPath id="clip15">
  <rect x="0" y="0" width="900" height="469"/>
</clipPath>
<g id="surface47" clip-path="url(#clip15)">
<path style=" stroke:none;fill-rule:evenodd;fill:rgb(12.941176%,31.764706%,65.882353%);fill-opacity:1;" d="M 415.125 417.597656 C 417.625 417.597656 420.125 417.597656 422.625 417.597656 C 422.460938 418.480469 422.710938 419.230469 423.375 419.847656 C 437.359375 414.925781 444.109375 420.054688 443.625 435.230469 C 445.042969 449.074219 439.042969 454.828125 425.625 452.492188 C 424.550781 452.140625 423.675781 451.515625 423 450.613281 C 422.625 456.113281 422.5 461.617188 422.625 467.125 C 420.125 467.125 417.625 467.125 415.125 467.125 C 415.125 450.613281 415.125 434.105469 415.125 417.597656 Z M 427.125 424.351562 C 432.3125 423.667969 435.191406 425.917969 435.75 431.105469 C 436.464844 435.511719 435.964844 439.765625 434.25 443.863281 C 431.769531 446.222656 428.894531 446.722656 425.625 445.363281 C 424.277344 444.136719 423.402344 442.636719 423 440.859375 C 422.1875 435.941406 422.691406 431.1875 424.5 426.601562 C 425.359375 425.75 426.234375 425 427.125 424.351562 Z M 427.125 424.351562 "/>
</g>
<mask id="mask15">
  <g filter="url(#alpha)">
<rect x="0" y="0" width="900" height="469" style="fill:rgb(0%,0%,0%);fill-opacity:0.984314;stroke:none;"/>
  </g>
</mask>
<clipPath id="clip16">
  <rect x="0" y="0" width="900" height="469"/>
</clipPath>
<g id="surface50" clip-path="url(#clip16)">
<path style=" stroke:none;fill-rule:evenodd;fill:rgb(12.941176%,31.372549%,65.882353%);fill-opacity:1;" d="M 469.875 417.597656 C 472.375 417.597656 474.875 417.597656 477.375 417.597656 C 477.257812 418.628906 477.382812 419.628906 477.75 420.597656 C 481.683594 417.800781 486.058594 416.925781 490.875 417.972656 C 492.609375 418.453125 493.859375 419.453125 494.625 420.972656 C 493.277344 423.199219 491.527344 425.074219 489.375 426.601562 C 485.28125 423.34375 481.65625 423.84375 478.5 428.101562 C 478.125 436.355469 478 444.609375 478.125 452.867188 C 475.375 452.867188 472.625 452.867188 469.875 452.867188 C 469.875 441.109375 469.875 429.355469 469.875 417.597656 Z M 469.875 417.597656 "/>
</g>
<mask id="mask16">
  <g filter="url(#alpha)">
<rect x="0" y="0" width="900" height="469" style="fill:rgb(0%,0%,0%);fill-opacity:0.964706;stroke:none;"/>
  </g>
</mask>
<clipPath id="clip17">
  <rect x="0" y="0" width="900" height="469"/>
</clipPath>
<g id="surface53" clip-path="url(#clip17)">
<path style=" stroke:none;fill-rule:evenodd;fill:rgb(12.54902%,31.764706%,65.882353%);fill-opacity:1;" d="M 517.875 417.597656 C 520.375 417.597656 522.875 417.597656 525.375 417.597656 C 525.210938 418.480469 525.460938 419.230469 526.125 419.847656 C 532.375 416.496094 538.25 416.996094 543.75 421.347656 C 544.921875 423.191406 545.671875 425.195312 546 427.351562 C 546.375 435.851562 546.5 444.359375 546.375 452.867188 C 543.875 452.867188 541.375 452.867188 538.875 452.867188 C 539 445.359375 538.875 437.855469 538.5 430.355469 C 537.015625 424.796875 533.640625 423.171875 528.375 425.476562 C 527.214844 426.386719 526.339844 427.511719 525.75 428.855469 C 525.375 436.855469 525.25 444.859375 525.375 452.867188 C 522.875 452.867188 520.375 452.867188 517.875 452.867188 C 517.875 441.109375 517.875 429.355469 517.875 417.597656 Z M 517.875 417.597656 "/>
</g>
<mask id="mask17">
  <g filter="url(#alpha)">
<rect x="0" y="0" width="900" height="469" style="fill:rgb(0%,0%,0%);fill-opacity:0.945098;stroke:none;"/>
  </g>
</mask>
<clipPath id="clip18">
  <rect x="0" y="0" width="900" height="469"/>
</clipPath>
<g id="surface56" clip-path="url(#clip18)">
<path style=" stroke:none;fill-rule:evenodd;fill:rgb(12.941176%,31.764706%,65.882353%);fill-opacity:1;" d="M 562.875 417.597656 C 565.636719 417.472656 568.386719 417.597656 571.125 417.972656 C 572.886719 418.234375 574.261719 419.109375 575.25 420.597656 C 575.617188 419.628906 575.742188 418.628906 575.625 417.597656 C 578.125 417.597656 580.625 417.597656 583.125 417.597656 C 583.460938 431.398438 583.085938 445.152344 582 458.871094 C 576.921875 466.898438 569.796875 469.277344 560.625 466 C 558.476562 465.300781 556.730469 464.050781 555.375 462.246094 C 557 460.621094 558.625 458.996094 560.25 457.367188 C 564.453125 461.007812 568.828125 461.257812 573.375 458.121094 C 575.183594 455.382812 575.808594 452.378906 575.25 449.113281 C 570.394531 452.628906 565.269531 453.003906 559.875 450.238281 C 555.597656 445.894531 553.847656 440.640625 554.625 434.480469 C 553.359375 426.640625 556.105469 421.011719 562.875 417.597656 Z M 566.625 424.351562 C 573.296875 424.261719 576.296875 427.640625 575.625 434.480469 C 576.445312 440.15625 574.195312 443.785156 568.875 445.363281 C 564.835938 444.949219 562.710938 442.699219 562.5 438.609375 C 561.742188 434.433594 562.242188 430.429688 564 426.601562 C 564.859375 425.75 565.734375 425 566.625 424.351562 Z M 566.625 424.351562 "/>
</g>
<mask id="mask18">
  <g filter="url(#alpha)">
<rect x="0" y="0" width="900" height="469" style="fill:rgb(0%,0%,0%);fill-opacity:0.956863;stroke:none;"/>
  </g>
</mask>
<clipPath id="clip19">
  <rect x="0" y="0" width="900" height="469"/>
</clipPath>
<g id="surface59" clip-path="url(#clip19)">
<path style=" stroke:none;fill-rule:evenodd;fill:rgb(12.941176%,31.372549%,65.882353%);fill-opacity:1;" d="M 616.875 417.597656 C 622.019531 417.195312 627.019531 417.820312 631.875 419.472656 C 632.796875 420.058594 633.546875 420.808594 634.125 421.726562 C 633.027344 423.699219 631.527344 425.324219 629.625 426.601562 C 625.5625 423.933594 621.3125 423.433594 616.875 425.101562 C 614.925781 427.007812 614.925781 428.882812 616.875 430.730469 C 621.125 431.480469 625.375 432.230469 629.625 432.980469 C 634.824219 435.511719 636.699219 439.636719 635.25 445.363281 C 634.167969 448.195312 632.292969 450.320312 629.625 451.742188 C 622.773438 454.273438 616.023438 454.023438 609.375 450.992188 C 608.347656 449.984375 607.347656 448.984375 606.375 447.988281 C 607.472656 446.015625 608.972656 444.386719 610.875 443.109375 C 615.421875 446.625 620.421875 447.5 625.875 445.738281 C 628.449219 443.960938 628.699219 441.960938 626.625 439.734375 C 621.878906 438.796875 617.128906 437.796875 612.375 436.734375 C 608.492188 433.839844 607.117188 429.964844 608.25 425.101562 C 609.894531 421.101562 612.769531 418.601562 616.875 417.597656 Z M 616.875 417.597656 "/>
</g>
<mask id="mask19">
  <g filter="url(#alpha)">
<rect x="0" y="0" width="900" height="469" style="fill:rgb(0%,0%,0%);fill-opacity:0.960784;stroke:none;"/>
  </g>
</mask>
<clipPath id="clip20">
  <rect x="0" y="0" width="900" height="469"/>
</clipPath>
<g id="surface62" clip-path="url(#clip20)">
<path style=" stroke:none;fill-rule:evenodd;fill:rgb(12.941176%,31.764706%,65.882353%);fill-opacity:1;" d="M 652.125 417.597656 C 658.449219 416.582031 663.824219 418.332031 668.25 422.851562 C 669.421875 424.695312 670.171875 426.695312 670.5 428.855469 C 671 433.355469 671 437.859375 670.5 442.359375 C 668.40625 449.457031 663.65625 453.210938 656.25 453.617188 C 648.179688 453.046875 643.429688 448.792969 642 440.859375 C 640.335938 433.128906 641.960938 426.25 646.875 420.222656 C 648.695312 419.3125 650.445312 418.4375 652.125 417.597656 Z M 654.375 424.351562 C 659.140625 423.722656 662.015625 425.722656 663 430.355469 C 663.796875 435.023438 663.296875 439.527344 661.5 443.863281 C 659.253906 445.9375 656.628906 446.5625 653.625 445.738281 C 652 445.113281 650.875 443.988281 650.25 442.359375 C 648.503906 436.941406 648.878906 431.6875 651.375 426.601562 C 652.425781 425.835938 653.425781 425.085938 654.375 424.351562 Z M 654.375 424.351562 "/>
</g>
<mask id="mask20">
  <g filter="url(#alpha)">
<rect x="0" y="0" width="900" height="469" style="fill:rgb(0%,0%,0%);fill-opacity:0.956863;stroke:none;"/>
  </g>
</mask>
<clipPath id="clip21">
  <rect x="0" y="0" width="900" height="469"/>
</clipPath>
<g id="surface65" clip-path="url(#clip21)">
<path style=" stroke:none;fill-rule:evenodd;fill:rgb(12.941176%,31.372549%,65.882353%);fill-opacity:1;" d="M 788.625 417.597656 C 801.390625 416.488281 807.890625 422.367188 808.125 435.230469 C 807.53125 450.277344 800.03125 455.78125 785.625 451.742188 C 780.328125 447.753906 777.832031 442.375 778.125 435.605469 C 777.421875 426.992188 780.921875 420.988281 788.625 417.597656 Z M 790.875 424.351562 C 794.859375 423.78125 797.738281 425.28125 799.5 428.855469 C 800.003906 433.105469 800.003906 437.359375 799.5 441.609375 C 797.664062 445.804688 794.535156 447.179688 790.125 445.738281 C 788.714844 444.578125 787.589844 443.203125 786.75 441.609375 C 786.097656 436.796875 786.34375 432.042969 787.5 427.351562 C 788.550781 426.175781 789.675781 425.171875 790.875 424.351562 Z M 790.875 424.351562 "/>
</g>
<mask id="mask21">
  <g filter="url(#alpha)">
<rect x="0" y="0" width="900" height="469" style="fill:rgb(0%,0%,0%);fill-opacity:0.941176;stroke:none;"/>
  </g>
</mask>
<clipPath id="clip22">
  <rect x="0" y="0" width="900" height="469"/>
</clipPath>
<g id="surface68" clip-path="url(#clip22)">
<path style=" stroke:none;fill-rule:evenodd;fill:rgb(12.941176%,31.764706%,65.490196%);fill-opacity:1;" d="M 816.375 417.597656 C 818.871094 417.597656 821.378906 417.597656 823.875 417.597656 C 823.753906 418.628906 823.882812 419.628906 824.25 420.597656 C 828.726562 417.371094 833.601562 416.746094 838.875 418.722656 C 841.867188 420.214844 843.742188 422.59375 844.5 425.851562 C 844.875 434.851562 845.003906 443.859375 844.875 452.867188 C 842.378906 452.867188 839.871094 452.867188 837.375 452.867188 C 837.503906 445.109375 837.375 437.355469 837 429.605469 C 835.132812 424.605469 831.757812 423.230469 826.875 425.476562 C 825.71875 426.660156 824.84375 428.039062 824.25 429.605469 C 823.875 437.355469 823.746094 445.109375 823.875 452.867188 C 821.378906 452.867188 818.871094 452.867188 816.375 452.867188 C 816.375 441.109375 816.375 429.355469 816.375 417.597656 Z M 816.375 417.597656 "/>
</g>
<mask id="mask22">
  <g filter="url(#alpha)">
<rect x="0" y="0" width="900" height="469" style="fill:rgb(0%,0%,0%);fill-opacity:0.956863;stroke:none;"/>
  </g>
</mask>
<clipPath id="clip23">
  <rect x="0" y="0" width="900" height="469"/>
</clipPath>
<g id="surface71" clip-path="url(#clip23)">
<path style=" stroke:none;fill-rule:evenodd;fill:rgb(12.941176%,31.372549%,65.882353%);fill-opacity:1;" d="M 862.125 417.597656 C 867.269531 417.195312 872.273438 417.820312 877.125 419.472656 C 878.046875 420.058594 878.796875 420.808594 879.375 421.726562 C 878.28125 423.699219 876.78125 425.324219 874.875 426.601562 C 871.101562 424.167969 867.097656 423.542969 862.875 424.726562 C 860.300781 426.503906 860.046875 428.503906 862.125 430.730469 C 867.210938 431.339844 872.210938 432.339844 877.125 433.730469 C 880.988281 437.742188 881.863281 442.367188 879.75 447.613281 C 875.96875 451.796875 871.222656 453.796875 865.5 453.617188 C 860.121094 453.492188 855.496094 451.617188 851.625 447.988281 C 853.042969 446.261719 854.542969 444.632812 856.125 443.109375 C 860.675781 446.628906 865.679688 447.503906 871.125 445.738281 C 874.125 443.488281 874.125 441.234375 871.125 438.984375 C 867.351562 438.648438 863.601562 438.148438 859.875 437.484375 C 853.628906 434.753906 851.753906 430.125 854.25 423.601562 C 856.15625 420.589844 858.78125 418.589844 862.125 417.597656 Z M 862.125 417.597656 "/>
</g>
<mask id="mask23">
  <g filter="url(#alpha)">
<rect x="0" y="0" width="900" height="469" style="fill:rgb(0%,0%,0%);fill-opacity:0.984314;stroke:none;"/>
  </g>
</mask>
<clipPath id="clip24">
  <rect x="0" y="0" width="900" height="469"/>
</clipPath>
<g id="surface74" clip-path="url(#clip24)">
<path style=" stroke:none;fill-rule:evenodd;fill:rgb(12.54902%,31.764706%,65.882353%);fill-opacity:1;" d="M 452.625 417.597656 C 455.125 417.597656 457.625 417.597656 460.125 417.597656 C 460.125 429.355469 460.125 441.109375 460.125 452.867188 C 457.625 452.867188 455.125 452.867188 452.625 452.867188 C 452.625 441.109375 452.625 429.355469 452.625 417.597656 Z M 452.625 417.597656 "/>
</g>
<mask id="mask24">
  <g filter="url(#alpha)">
<rect x="0" y="0" width="900" height="469" style="fill:rgb(0%,0%,0%);fill-opacity:0.956863;stroke:none;"/>
  </g>
</mask>
<clipPath id="clip25">
  <rect x="0" y="0" width="900" height="469"/>
</clipPath>
<g id="surface77" clip-path="url(#clip25)">
<path style=" stroke:none;fill-rule:evenodd;fill:rgb(12.54902%,31.764706%,65.490196%);fill-opacity:1;" d="M 499.875 417.597656 C 502.375 417.597656 504.875 417.597656 507.375 417.597656 C 507.375 429.355469 507.375 441.109375 507.375 452.867188 C 504.875 452.867188 502.375 452.867188 499.875 452.867188 C 499.875 441.109375 499.875 429.355469 499.875 417.597656 Z M 499.875 417.597656 "/>
</g>
<mask id="mask25">
  <g filter="url(#alpha)">
<rect x="0" y="0" width="900" height="469" style="fill:rgb(0%,0%,0%);fill-opacity:0.945098;stroke:none;"/>
  </g>
</mask>
<clipPath id="clip26">
  <rect x="0" y="0" width="900" height="469"/>
</clipPath>
<g id="surface80" clip-path="url(#clip26)">
<path style=" stroke:none;fill-rule:evenodd;fill:rgb(12.941176%,31.764706%,65.490196%);fill-opacity:1;" d="M 700.125 417.597656 C 702.625 417.597656 705.125 417.597656 707.625 417.597656 C 707.335938 426.144531 707.710938 434.648438 708.75 443.109375 C 711.578125 446.328125 714.953125 446.953125 718.875 444.988281 C 719.917969 444.109375 720.546875 442.984375 720.75 441.609375 C 721.125 433.609375 721.25 425.605469 721.125 417.597656 C 723.625 417.597656 726.125 417.597656 728.625 417.597656 C 728.625 429.355469 728.625 441.109375 728.625 452.867188 C 726.125 452.867188 723.625 452.867188 721.125 452.867188 C 721.238281 452.078125 721.113281 451.328125 720.75 450.613281 C 714.390625 454.65625 708.390625 454.15625 702.75 449.113281 C 701.578125 447.269531 700.828125 445.269531 700.5 443.109375 C 700.125 434.609375 700 426.105469 700.125 417.597656 Z M 700.125 417.597656 "/>
</g>
<mask id="mask26">
  <g filter="url(#alpha)">
<rect x="0" y="0" width="900" height="469" style="fill:rgb(0%,0%,0%);fill-opacity:0.937255;stroke:none;"/>
  </g>
</mask>
<clipPath id="clip27">
  <rect x="0" y="0" width="900" height="469"/>
</clipPath>
<g id="surface83" clip-path="url(#clip27)">
<path style=" stroke:none;fill-rule:evenodd;fill:rgb(12.941176%,31.372549%,65.882353%);fill-opacity:1;" d="M 762.375 417.597656 C 764.871094 417.597656 767.378906 417.597656 769.875 417.597656 C 769.875 429.355469 769.875 441.109375 769.875 452.867188 C 767.378906 452.867188 764.871094 452.867188 762.375 452.867188 C 762.375 441.109375 762.375 429.355469 762.375 417.597656 Z M 762.375 417.597656 "/>
</g>
</defs>
<g id="surface1">
<use xlink:href="#surface5" mask="url(#mask0)"/>
<use xlink:href="#surface8" mask="url(#mask1)"/>
<use xlink:href="#surface11" mask="url(#mask2)"/>
<use xlink:href="#surface14" mask="url(#mask3)"/>
<use xlink:href="#surface17" mask="url(#mask4)"/>
<use xlink:href="#surface20" mask="url(#mask5)"/>
<use xlink:href="#surface23" mask="url(#mask6)"/>
<use xlink:href="#surface26" mask="url(#mask7)"/>
<use xlink:href="#surface29" mask="url(#mask8)"/>
<use xlink:href="#surface32" mask="url(#mask9)"/>
<use xlink:href="#surface35" mask="url(#mask10)"/>
<use xlink:href="#surface38" mask="url(#mask11)"/>
<use xlink:href="#surface41" mask="url(#mask12)"/>
<use xlink:href="#surface44" mask="url(#mask13)"/>
<use xlink:href="#surface47" mask="url(#mask14)"/>
<use xlink:href="#surface50" mask="url(#mask15)"/>
<use xlink:href="#surface53" mask="url(#mask16)"/>
<use xlink:href="#surface56" mask="url(#mask17)"/>
<use xlink:href="#surface59" mask="url(#mask18)"/>
<use xlink:href="#surface62" mask="url(#mask19)"/>
<use xlink:href="#surface65" mask="url(#mask20)"/>
<use xlink:href="#surface68" mask="url(#mask21)"/>
<use xlink:href="#surface71" mask="url(#mask22)"/>
<use xlink:href="#surface74" mask="url(#mask23)"/>
<use xlink:href="#surface77" mask="url(#mask24)"/>
<use xlink:href="#surface80" mask="url(#mask25)"/>
<use xlink:href="#surface83" mask="url(#mask26)"/>
</g>
</svg>
