<?xml version="1.0" encoding="utf-8"?>
<!-- Generator: Adobe Illustrator 25.0.1, SVG Export Plug-In . SVG Version: 6.00 Build 0)  -->
<svg version="1.0" id="Layer_1" xmlns="http://www.w3.org/2000/svg" xmlns:xlink="http://www.w3.org/1999/xlink" x="0px" y="0px"
	 viewBox="0 0 246 155" style="enable-background:new 0 0 246 155;" xml:space="preserve">
<style type="text/css">
	.st0{fill:#507295;}
	.st1{fill:none;}
</style>
<path class="st0" d="M61.5,96.9c0,0.3-0.2,0.6-0.5,0.6c0,0,0,0,0,0H50.6c-0.3,0-0.6-0.1-0.8-0.4l-5.5-10.5h-2v10
	c0,0.5-0.4,0.8-0.8,0.8c0,0-0.1,0-0.1,0h-8c-0.5,0-0.9-0.3-0.9-0.7c0,0,0-0.1,0-0.1v-37c0-0.9,0.3-1.4,1.1-1.6l7.4-1.2h0.3
	c0.6,0,1.1,0.3,1.1,1.1v22h2l6.1-10.4c0.1-0.3,0.4-0.5,0.8-0.5h0.3l9.3,0.2c0.3,0,0.5,0.2,0.5,0.5c0,0,0,0,0,0.1c0,0.1,0,0.2,0,0.2
	l-8.6,12.7l8.8,13.8c0,0.1,0,0.1,0,0.2L61.5,96.9z M85.5,97.2c-2.6,0.5-5.3,0.7-7.9,0.7c-6.9,0-13.3-1.1-13.3-9.3
	c0-6.7,4.6-7.8,7.9-8.3l8.9-1v-1.3c0-1.3-0.2-2-1-2.4c-1.1-0.4-2.2-0.6-3.3-0.5c-2.9,0.1-5.7,0.6-8.5,1.4c-0.1,0-0.3,0.1-0.4,0.1
	c-0.3,0-0.6-0.2-0.6-0.5l-1-4.3c0-0.1-0.1-0.2-0.1-0.3c0-0.4,0.3-0.8,0.7-0.9c3.9-1.3,8.1-2,12.2-2c3.7,0,6.4,0.5,8.2,1.6
	c2.6,1.4,3.7,3.8,3.7,6.9v14.5C91,95.8,89.1,96.4,85.5,97.2L85.5,97.2z M81,84.4l-4.3,0.7c-1.8,0.3-3.2,0.7-3.2,3.5s2.3,3.4,3.9,3.4
	c1.2,0,2.4-0.2,3.5-0.4V84.4z M113.5,75.7c-1.9,0-3.8,0.1-5.6,0.4v20.6c0,0.5-0.4,0.8-0.8,0.8c0,0-0.1,0-0.1,0h-8.5
	c-0.5,0-0.9-0.3-0.9-0.7c0,0,0-0.1,0-0.1V72.7c0-1.9,1.9-2.5,5.3-3.1c3.2-0.6,6.4-0.9,9.6-0.9h1c0.8,0,1.1,0.3,1.1,1.2v4.5
	c0,0.6,0,1.3-1.1,1.3L113.5,75.7z M179.1,84.8c0,0.9-0.2,1.8-1.6,1.8h-16.3c0,1.9,0.8,3.7,2.6,4.4c1.6,0.5,3.2,0.7,4.9,0.7
	c2.4-0.1,4.8-0.5,7.2-1.2h0.2c0.5,0.1,0.9,0.5,1,1l0.8,3.4c0,0.2,0.1,0.3,0.1,0.4c0,0.5-0.3,0.9-0.7,1c-3.3,1.3-6.8,1.9-10.3,1.9
	c-10.5,0-15.6-3.4-15.6-14.6s3.7-15.1,14.1-15.1c5.2,0,8.6,1,10.7,3.2c2.3,2.4,3.1,5.5,3.1,10.7L179.1,84.8z M169.2,80.1
	c0-0.7-0.1-1.4-0.2-2.1c-0.4-2.5-1.6-3.3-3.8-3.3c-2.9,0-3.8,1.1-4.1,3c-0.1,1.1-0.2,2.2-0.2,3.2h8.2
	C169.2,80.7,169.2,80.4,169.2,80.1L169.2,80.1z M213.5,96.7c0,0.3-0.2,0.8-0.5,0.8h-9.1c-0.4,0-0.7-0.2-0.9-0.6l-6-9l-5.2,8.9
	c-0.2,0.4-0.5,0.6-0.9,0.7h-9.2c-0.3,0-0.5-0.4-0.5-0.8c0-0.1,0-0.2,0.1-0.3l9.4-13.2l-8.3-12.8c-0.2-0.5-0.1-1,0.4-1.3
	c0.1,0,0.1-0.1,0.2-0.1h8.4c0.5-0.1,1,0.2,1.2,0.7l5.1,8.5l4.2-8.4c0.2-0.5,0.7-0.9,1.3-0.8h8.3c0.4,0.2,0.7,0.6,0.7,1
	c0,0.1,0,0.3-0.1,0.4l-8.2,12.8l9.4,13.2C213.5,96.5,213.5,96.6,213.5,96.7L213.5,96.7z M135.2,91.4c-0.9,0.2-1.7,0.3-2.6,0.3
	c-3.6,0-4.6-0.8-4.6-8.6c0-7.5,0.9-7.8,4.1-7.8c1,0,2,0.1,3.1,0.3V91.4z M144.1,57.6c-0.1,0-0.2,0-0.3,0l-7.4,1.1
	c-0.9,0.2-1.1,0.6-1.1,1.5v9.4c-2-0.5-4-0.8-6.1-0.8c-9.1,0-11,6.2-11,14.8c0,11.5,4.2,14.2,14.5,14.2c3.2,0,6.4-0.4,9.5-1.3
	c1.9-0.4,3.2-2.2,3-4.2V58.7c0-0.6-0.4-1-0.9-1.1C144.2,57.6,144.1,57.6,144.1,57.6L144.1,57.6z"/>
<rect x="26" y="51" class="st1" width="194" height="53"/>
</svg>
