<?xml version="1.0" encoding="utf-8"?>
<!-- Generator: Adobe Illustrator 27.0.0, SVG Export Plug-In . SVG Version: 6.00 Build 0)  -->
<svg version="1.1" id="Layer_1" xmlns="http://www.w3.org/2000/svg" xmlns:xlink="http://www.w3.org/1999/xlink" x="0px" y="0px"
	   width="155" height="155" viewBox="0 0 956.8 637.2" style="enable-background:new 0 0 956.8 637.2;" xml:space="preserve">
<style type="text/css">
	.st0{fill:#223E7F;}
	.st1{fill:#1884BC;}
</style>
<g>
	<g>
		<path class="st0" d="M311.4,491.3l247.9-129c11.2-5.8,25.1-1.4,30.7,9.9l38.8,77c5.8,11.5,20.1,15.9,31.4,9.6l279.1-156.5
			c11.1-6.2,14.9-20.4,8.4-31.4L796,15c-6.1-10.3-19.2-14.1-29.9-8.6L544.3,120.7c-11.2,5.8-25,1.3-30.7-10l-45.3-90.6
			C462.6,8.8,448.9,4.3,437.6,10L98.3,182.9c-5.3,2.7-9.3,7.4-11.2,13l-80,239.2c-6.3,18.9,13.1,36.2,31.1,27.8l197.4-92.3"/>
		<path class="st1" d="M109.6,196.4L403.4,53.9c3.5-1.7,7.3,1.8,5.8,5.5l-103.3,253c-0.4,1-1.2,1.8-2.1,2.2L27.6,445.9
			c-3.4,1.6-7.1-1.7-5.9-5.3l85.8-241.7C107.8,197.8,108.6,196.9,109.6,196.4z"/>
		<path class="st1" d="M402.8,213.9L683.9,71.2c3.3-1.7,7,1.6,5.6,5.1l-95.4,246.1c-0.4,0.9-1.1,1.7-2,2.2L327.8,456l73-239.8
			C401.1,215.2,401.8,214.4,402.8,213.9z"/>
	</g>
	<g>
		<path class="st0" d="M177.7,616.2h-17.8v-41L145,597h-12.8l-15-21.8v41H99.4v-66.9H118l20.6,30l20.6-30h18.4V616.2z"/>
		<path class="st0" d="M269.4,616.2h-47c-3.5,0-6.5-1.3-9-3.8c-2.5-2.5-3.8-5.5-3.8-9v-41.3c0-3.5,1.3-6.5,3.8-9
			c2.5-2.5,5.5-3.8,9-3.8h47v14.9h-39.2c-0.8,0-1.4,0.3-2,0.9c-0.6,0.6-0.9,1.2-0.9,2v8.2h36.3v14.9h-36.3v8.2c0,0.8,0.3,1.4,0.9,2
			c0.6,0.6,1.2,0.9,2,0.9h39.2V616.2z"/>
		<path class="st0" d="M336.4,616.2h-17.9v-52h-23.8v-14.9h65.4v14.9h-23.8V616.2z"/>
		<path class="st0" d="M452,616.2h-17.8l-5.9-13.5H396l-5.9,13.5h-17.8l29.1-66.9h21.4L452,616.2z M421.8,587.8l-9.6-22.1l-9.6,22.1
			H421.8z"/>
		<path class="st0" d="M555.4,616.2h-20L522,576.9l-13.6,39.3h-19.9L465,549.4h18.8l14.5,41.3l14.1-41.3h18.8l14.2,41.3l14.4-41.3
			h18.8L555.4,616.2z"/>
		<path class="st0" d="M664.9,616.2h-47c-3.5,0-6.5-1.3-9-3.8c-2.5-2.5-3.8-5.5-3.8-9v-41.3c0-3.5,1.3-6.5,3.8-9
			c2.5-2.5,5.5-3.8,9-3.8h47v14.9h-39.2c-0.8,0-1.4,0.3-2,0.9s-0.9,1.2-0.9,2v8.2h36.3v14.9h-36.3v8.2c0,0.8,0.3,1.4,0.9,2
			s1.2,0.9,2,0.9h39.2V616.2z"/>
		<path class="st0" d="M750.9,616.2h-55.5v-66.9h17.8v52h37.7V616.2z"/>
		<path class="st0" d="M828.8,616.2h-50.5v-66.9h50.5c5.5,0,10.2,1.9,14,5.8c3.9,3.9,5.8,8.6,5.8,14.1v26.9c0,5.5-1.9,10.3-5.8,14.1
			C839,614.3,834.3,616.2,828.8,616.2z M821,601.3c2.7,0,5.1-1,7-2.9c1.9-1.9,2.9-4.3,2.9-7.1v-17c0-2.8-1-5.2-2.9-7.1
			c-1.9-1.9-4.3-2.9-7-2.9h-24.9v37.1H821z"/>
	</g>
</g>
</svg>
