<?xml version="1.0" encoding="utf-8"?>
<!-- Generator: Adobe Illustrator 27.0.0, SVG Export Plug-In . SVG Version: 6.00 Build 0)  -->
<svg version="1.1" id="Layer_1" xmlns="http://www.w3.org/2000/svg" xmlns:xlink="http://www.w3.org/1999/xlink" x="0px" y="0px"
	 viewBox="0 0 774.8 97.6" style="enable-background:new 0 0 774.8 97.6;" xml:space="preserve">
<style type="text/css">
	.st0{fill:#223E7F;}
	.st1{fill:#1884BC;}
</style>
<g>
	<path class="st0" d="M95.3,81.6H77.7V40.9L62.9,62.5H50.2L35.3,40.9v40.7H17.6V15.2H36L56.5,45L77,15.2h18.3V81.6z"/>
	<path class="st0" d="M186.4,81.6h-46.6c-3.5,0-6.5-1.2-9-3.7c-2.5-2.5-3.7-5.5-3.7-9v-41c0-3.5,1.2-6.5,3.7-9
		c2.5-2.5,5.5-3.7,9-3.7h46.6V30h-38.9c-0.8,0-1.4,0.3-2,0.9c-0.6,0.6-0.9,1.2-0.9,2V41h36v14.8h-36V64c0,0.8,0.3,1.4,0.9,2
		c0.6,0.6,1.2,0.9,2,0.9h38.9V81.6z"/>
	<path class="st0" d="M252.9,81.6h-17.7V30h-23.6V15.2h64.9V30h-23.6V81.6z"/>
	<path class="st0" d="M367.6,81.6h-17.6l-5.9-13.4h-32l-5.9,13.4h-17.6l28.9-66.4h21.2L367.6,81.6z M337.6,53.3L328,31.4l-9.6,21.9
		H337.6z"/>
	<path class="st0" d="M470.3,81.6h-19.8l-13.4-39.1l-13.5,39.1h-19.7l-23.3-66.4h18.7l14.4,41l14-41h18.7l14.1,41l14.3-41h18.7
		L470.3,81.6z"/>
	<path class="st0" d="M579,81.6h-46.6c-3.5,0-6.5-1.2-9-3.7c-2.5-2.5-3.7-5.5-3.7-9v-41c0-3.5,1.2-6.5,3.7-9c2.5-2.5,5.5-3.7,9-3.7
		H579V30h-38.9c-0.8,0-1.4,0.3-2,0.9c-0.6,0.6-0.9,1.2-0.9,2V41h36v14.8h-36V64c0,0.8,0.3,1.4,0.9,2c0.6,0.6,1.2,0.9,2,0.9H579V81.6
		z"/>
	<path class="st0" d="M664.3,81.6h-55.1V15.2h17.6v51.6h37.4V81.6z"/>
	<path class="st0" d="M741.7,81.6h-50.2V15.2h50.2c5.4,0,10.1,1.9,13.9,5.8c3.9,3.9,5.8,8.5,5.8,14v26.7c0,5.5-1.9,10.2-5.8,14
		C751.8,79.7,747.1,81.6,741.7,81.6z M733.9,66.8c2.7,0,5-1,7-2.9c1.9-1.9,2.9-4.3,2.9-7.1V40c0-2.8-1-5.1-2.9-7.1
		c-1.9-1.9-4.3-2.9-7-2.9h-24.7v36.8H733.9z"/>
</g>
</svg>
