<svg width="255" height="40" viewBox="0 0 259 70" fill="none" xmlns="http://www.w3.org/2000/svg">
<path d="M258.029 0H0V70H258.029V0Z" fill="#FF5001"/>
<path d="M55.0097 27.034C53.0963 24.1706 50.2179 22.0899 46.899 21.1709C43.5801 20.2518 40.0414 20.5557 36.9277 22.0272C33.8141 23.4986 31.3326 26.0396 29.9355 29.1873C28.5384 32.335 28.3185 35.8799 29.316 39.1761C30.3135 42.4723 32.4619 45.3004 35.3699 47.1453C38.2779 48.9902 41.7518 49.729 45.1589 49.2272C48.566 48.7253 51.6794 47.0162 53.9319 44.4112C56.1844 41.8062 57.4261 38.4786 57.4308 35.0348C57.4321 32.1872 56.5896 29.4031 55.0097 27.034ZM40.6301 47.0122C37.7618 46.4465 35.1923 44.8689 33.3899 42.567C31.5876 40.2651 30.6725 37.3922 30.8114 34.4719C30.9503 31.5517 32.134 28.7786 34.1467 26.6581C36.1593 24.5377 38.867 23.2111 41.776 22.9202C44.6851 22.6293 47.6018 23.3934 49.9945 25.0733C52.3872 26.7533 54.0966 29.237 54.811 32.072C55.5254 34.9069 55.1973 37.9041 53.8865 40.5174C52.5757 43.1306 50.3695 45.1858 47.67 46.3083C45.443 47.2286 42.9933 47.4686 40.6301 46.998V47.0122Z" fill="white"/>
<path d="M37.8286 31.7719V29.0891H41.5293V25.1934C39.8316 25.442 38.2276 26.1273 36.8743 27.1821C35.521 28.2369 34.4648 29.625 33.8092 31.2106C33.3085 32.4168 33.0514 33.7101 33.0528 35.016H33.0195C33.0238 36.9745 33.6067 38.8881 34.695 40.5164C35.7834 42.1447 37.3286 43.4151 39.1367 44.1679C39.8997 44.482 40.6985 44.7008 41.5151 44.8196V31.7719H37.8286Z" fill="white"/>
<path d="M48.469 26.7723C47.1865 25.9123 45.7203 25.365 44.188 25.1741V38.6166H47.8507V41.3041H44.188V44.8431C44.4068 44.8146 44.6256 44.7813 44.8492 44.7385C46.773 44.3581 48.5409 43.416 49.9294 42.0311C51.3179 40.6463 52.2646 38.8809 52.65 36.958C53.0354 35.0352 52.8421 33.0413 52.0945 31.2283C51.3469 29.4153 50.0787 27.8647 48.45 26.7723H48.469Z" fill="white"/>
<path d="M65.7217 26.3682H74.4027C78.7932 26.3682 81.2429 28.8179 81.2429 32.3949C81.2429 36.0719 78.7932 38.6263 74.4027 38.6263H70.4213V43.9348H65.7217V26.3682ZM70.4213 29.9452V35.0492H73.5845C75.4254 35.0492 76.4386 34.1311 76.4386 32.4948C76.4386 30.8585 75.4206 29.9452 73.5845 29.9452H70.4213Z" fill="white"/>
<path d="M83.8496 26.3682H97.6441V30.1735H88.5588V33.2369H96.003V36.7093H88.5493V40.1817H97.9438V43.9348H83.8496V26.3682Z" fill="white"/>
<path d="M101.264 26.3682H105.959V43.9348H101.264V26.3682Z" fill="white"/>
<path d="M109.893 26.3682H113.979L121.737 35.9672H121.841L121.737 26.3682H126.436V43.9348H122.455L114.587 34.231H114.488L114.587 43.9348H109.893V26.3682Z" fill="white"/>
<path d="M130.366 26.3682H144.16V30.1735H135.065V33.2369H142.519V36.7093H135.065V40.1817H144.46V43.9348H130.366V26.3682Z" fill="white"/>
<path d="M147.78 26.3682H154.439L158.421 37.4989H158.525L162.607 26.3682H169.042V43.9348H164.343L164.652 32.2903H164.547L160.138 43.9348H156.665L152.275 32.2903H152.17L152.465 43.9348H147.766L147.78 26.3682Z" fill="white"/>
<path d="M177.757 26.3682H183.27L189.806 43.9348H184.811L183.793 40.7668H177.067L176.021 43.9348H171.221L177.757 26.3682ZM178.233 37.1945H182.647L180.53 30.5351H180.425L178.233 37.1945Z" fill="white"/>
<path d="M192.003 26.3682H196.089L203.838 35.9672H203.943L203.838 26.3682H208.538V43.9348H204.556L196.703 34.231H196.603L196.703 43.9348H192.008L192.003 26.3682Z" fill="white"/>
<path d="M212.477 26.3682H216.563L224.326 35.9672H224.425L224.326 26.3682H229.049V43.9348H225.063L217.157 34.231H217.057L217.157 43.9348H212.458L212.477 26.3682Z" fill="white"/>
</svg>
