<svg width="100.000000pt" height="115.000000pt" viewBox="0 0 436.000000 115.000000" xmlns="http://www.w3.org/2000/svg">
  <g transform="translate(0.000000,115.000000) scale(0.100000,-0.100000)" fill="#f8fafa" stroke="none">
    <path d="M0 575 l0 -575 2180 0 2180 0 0 575 0 575 -2180 0 -2180 0 0 -575z
m4320 5 l0 -540 -2140 0 -2140 0 0 540 0 540 2140 0 2140 0 0 -540z" />
    <path d="M50 580 l0 -530 2130 0 2130 0 0 280 0 280 -1500 -2 -1500 -3 0 253
0 252 -630 0 -630 0 0 -530z m711 252 c173 -103 329 -194 347 -201 18 -8 35
-18 38 -22 6 -10 -49 -112 -75 -139 -9 -9 -28 -38 -43 -63 -27 -47 -27 -47
-60 -27 -18 10 -186 111 -373 222 l-340 204 -62 99 c-34 55 -62 103 -62 108
-1 4 70 7 158 7 l159 0 313 -188z m383 96 c-29 -50 -57 -94 -62 -97 -4 -3 -17
-20 -27 -37 -20 -30 -20 -30 -156 51 l-136 81 41 47 41 46 177 1 177 0 -55
-92z m-551 -417 c114 -68 207 -127 207 -132 0 -5 -33 -65 -72 -132 l-73 -124
-88 151 c-224 380 -229 389 -205 374 13 -8 116 -70 231 -137z m3476 -20 c101
-48 109 -91 19 -91 -62 0 -75 3 -85 20 -30 47 -142 28 -165 -27 -43 -106 55
-205 153 -153 28 15 24 40 -6 40 -22 0 -25 4 -25 35 0 35 0 35 100 35 l100 0
0 -100 c0 -100 0 -100 -35 -100 -22 0 -37 6 -44 17 -9 17 -12 17 -58 0 -180
-65 -369 44 -339 196 28 138 228 205 385 128z m-2469 -111 l0 -140 110 0 110
0 0 -45 0 -45 -175 0 -175 0 0 185 0 185 65 0 65 0 0 -140z m410 -45 l0 -185
-75 0 -75 0 0 185 0 185 75 0 75 0 0 -185z m430 145 l0 -40 -110 0 c-110 0
-110 0 -110 -35 0 -35 0 -35 86 -35 85 0 85 0 82 -37 -3 -38 -3 -38 -85 -41
l-82 -3 -3 -67 -3 -67 -70 0 -70 0 -3 183 -2 182 185 0 185 0 0 -40z m480 -5
c0 -45 0 -45 -75 -45 l-75 0 0 -140 0 -140 -70 0 -70 0 0 140 0 139 -77 3
c-78 3 -78 3 -81 46 l-3 42 225 0 226 0 0 -45z m190 -140 l0 -185 -75 0 -75 0
0 185 0 185 75 0 75 0 0 -185z m274 100 c43 -47 84 -85 92 -85 11 0 14 19 14
85 l0 85 75 0 75 0 0 -180 0 -180 -77 0 c-78 1 -78 1 -143 75 -86 98 -98 98
-102 -2 l-3 -78 -77 -3 -78 -3 0 186 0 185 73 0 c73 0 73 0 151 -85z" />
    <path d="M2459 1070 c-52 -9 -103 -33 -136 -63 -23 -20 -23 -20 -23 21 l0 42
-309 0 -309 -1 -33 -94 c-39 -110 -42 -112 -65 -43 -46 139 -45 138 -144 138
-111 0 -110 7 -30 -171 34 -74 70 -155 82 -182 22 -47 22 -47 119 -47 75 0 98
3 101 14 2 8 37 89 78 180 l75 167 5 -178 5 -178 210 0 210 0 5 39 c5 36 6 38
19 22 102 -123 451 -65 451 74 0 43 -162 47 -198 5 -54 -62 -150 30 -99 96 30
39 76 41 106 5 26 -31 191 -23 191 9 0 24 2 25 70 25 l69 0 3 -137 3 -138 88
-3 87 -3 0 141 0 140 63 0 63 0 -4 -64 c-5 -79 14 -123 69 -159 150 -98 418
-69 472 51 11 24 12 21 17 -38 l5 -65 97 -3 97 -3 3 63 c5 100 107 103 108 2
0 -59 10 -64 122 -64 90 0 98 2 98 19 0 11 -4 21 -9 23 -6 2 -15 32 -20 67 -6
36 -15 69 -21 75 -6 6 -4 16 8 29 26 29 23 110 -4 138 -36 35 -122 49 -311 49
l-173 0 0 -67 c0 -67 -1 -68 -15 -38 -59 119 -342 148 -476 49 -34 -25 -34
-25 -37 16 l-3 40 -240 0 -239 0 0 -47 c0 -48 0 -48 -23 -21 -44 55 -173 86
-278 68z m-181 -141 c-6 -17 -8 -55 -5 -85 l6 -54 -100 0 c-137 0 -147 28 -11
32 l87 3 3 53 3 52 -90 0 c-74 0 -91 3 -91 15 0 12 18 15 104 15 105 0 105 0
94 -31z m1263 8 c44 -33 48 -75 13 -116 -47 -56 -134 -23 -134 51 0 58 77 99
121 65z m524 2 c10 -16 1 -21 -50 -26 -41 -5 -45 -4 -45 16 0 23 82 32 95 10z" />
  </g>
  <g transform="translate(0.000000,115.000000) scale(0.100000,-0.100000)" fill="#0c5a73" stroke="none">
    <path d="M30 580 l0 -550 2150 0 2150 0 0 550 0 550 -2150 0 -2150 0 0 -550z
m1270 0 l0 -520 -620 0 -620 0 0 520 0 520 620 0 620 0 0 -520z m1363 457 c50
-21 81 -55 92 -100 9 -33 -139 -43 -166 -11 -60 72 -172 -2 -135 -90 25 -60
89 -75 128 -31 30 35 178 39 178 5 0 -144 -355 -177 -447 -41 -124 183 115
367 350 268z m960 8 c195 -66 188 -290 -10 -351 -138 -43 -325 6 -375 99 -95
171 150 331 385 252z m-2085 -27 c10 -24 29 -73 42 -110 29 -83 29 -82 75 47
l38 105 83 0 c46 0 84 -2 84 -5 0 -3 -36 -84 -80 -181 -44 -97 -80 -180 -80
-185 0 -5 -40 -9 -88 -9 -88 0 -88 0 -110 48 -12 26 -48 107 -82 181 -74 164
-75 151 20 151 79 0 79 0 98 -42z m752 -3 l0 -45 -110 0 c-110 0 -110 0 -110
-25 0 -25 1 -25 91 -25 l90 0 -3 -42 c-3 -43 -3 -43 -90 -46 -86 -3 -88 -3
-88 -27 0 -25 0 -25 111 -25 l110 0 -3 -47 -3 -48 -200 0 -200 0 -3 175 c-1
96 0 180 2 187 4 10 52 13 206 13 l200 0 0 -45z m940 -5 l0 -50 -75 0 -75 0 0
-140 0 -141 -77 3 -78 3 -3 138 -3 137 -74 0 -75 0 0 50 0 50 230 0 230 0 0
-50z m934 36 c99 -23 135 -98 76 -161 -22 -23 -22 -26 -7 -38 11 -7 21 -37 28
-77 5 -36 14 -66 20 -68 33 -12 -4 -22 -79 -22 -101 0 -112 6 -112 65 0 59 -9
67 -71 63 -54 -3 -54 -3 -57 -66 l-3 -63 -87 3 -87 3 -3 188 -2 187 162 0
c103 0 185 -5 222 -14z m136 -716 l0 -270 -1490 0 -1490 0 0 263 c0 145 3 267
7 270 3 4 674 7 1490 7 l1483 0 0 -270z" />
    <path d="M173 913 l72 -117 374 -224 c410 -245 386 -236 430 -158 17 30 35 56
39 58 4 2 24 32 45 67 41 70 40 79 -16 102 -18 7 -173 98 -346 201 l-313 188
-179 0 -178 0 72 -117z" />
    <path d="M793 980 c-56 -63 -62 -53 94 -145 166 -97 155 -94 178 -50 11 19 22
35 26 35 3 0 28 37 54 83 26 45 55 92 63 105 14 22 14 22 -179 22 l-194 -1
-42 -49z" />
    <path d="M322 669 c15 -39 327 -560 335 -558 4 2 44 64 89 139 l81 137 -237
141 c-256 153 -277 164 -268 141z" />
    <path d="M3435 935 c-34 -33 -34 -92 0 -129 69 -74 192 17 143 107 -28 53
-101 65 -143 22z" />
    <path d="M3960 929 c0 -31 0 -31 56 -27 96 8 94 58 -2 58 -54 0 -54 0 -54 -31z" />
    <path d="M3867 530 c-178 -30 -259 -200 -151 -320 60 -66 216 -94 309 -56 35
15 40 15 47 1 6 -10 24 -15 53 -15 l45 0 0 110 0 110 -110 0 -110 0 0 -45 c0
-42 2 -45 28 -45 26 -1 26 -1 8 -15 -76 -58 -174 34 -137 128 21 54 116 71
144 26 10 -16 25 -19 100 -19 l88 0 -23 42 c-41 75 -169 118 -291 98z" />
    <path d="M1458 335 l3 -195 184 0 185 0 0 55 0 55 -110 0 -110 0 0 140 0 140
-77 0 -78 0 3 -195z" />
    <path d="M1850 335 l0 -195 85 0 84 0 3 195 3 195 -87 0 -88 0 0 -195z" />
    <path d="M2062 338 l3 -193 80 0 80 0 3 67 3 67 82 3 82 3 3 48 3 47 -85 0
c-85 0 -86 0 -86 25 0 25 0 25 110 25 l110 0 0 50 0 50 -195 0 -195 0 2 -192z" />
    <path d="M2462 478 l3 -53 78 -3 77 -3 0 -139 0 -140 80 0 80 0 0 140 0 140
75 0 75 0 0 55 0 55 -236 0 -235 0 3 -52z" />
    <path d="M2950 335 l0 -195 85 0 84 0 3 195 3 195 -87 0 -88 0 0 -195z" />
    <path d="M3150 335 l0 -196 88 3 87 3 3 78 c3 93 1 93 82 2 65 -74 65 -74 153
-75 l87 0 0 190 0 190 -85 0 -85 0 0 -87 -1 -88 -82 88 -82 87 -82 0 -83 0 0
-195z" />
  </g>
</svg>