<?xml version="1.0" encoding="utf-8"?>
<!-- Generator: Adobe Illustrator 19.2.1, SVG Export Plug-In . SVG Version: 6.00 Build 0)  -->
<svg version="1.1" id="layer" xmlns="http://www.w3.org/2000/svg" xmlns:xlink="http://www.w3.org/1999/xlink" x="0px" y="0px"
	 viewBox="0 0 652 652" style="enable-background:new 0 0 652 652;" xml:space="preserve">
<style type="text/css">
	.st0{fill:#3D5959;}
	.st1{fill:none;stroke:#3D5959;stroke-width:0.1541;stroke-linecap:round;stroke-linejoin:round;stroke-miterlimit:10;}
	.st2{fill:#870000;}
	.st3{fill:none;stroke:#870000;stroke-width:0.1541;stroke-linecap:round;stroke-linejoin:round;stroke-miterlimit:10;}
</style>
<path class="st0" d="M177.8,307.7l6,21.1l8.3-21.1h6.8l8,21.1l6.3-21.1h8.2l-12.2,37.5h-7.6l-8.3-23l-8.8,23h-7.4l-12.5-37.5H177.8z
	 M246,323.2l0.5-2.9l0.6-2.3c1.6-4.2,5.4-5.2,9.6-4.6l1.8,0.8l1.4,1.1l1.1,1.5l0.9,2.3l0.6,2.9l0.2,3.7l-0.2,3.9l-0.6,2.9l-0.8,2.3
	l-0.9,1.7l-1.1,1.2l-1.1,0.8l-1.1,0.5l-1.1,0.3l-0.9,0.2h-0.8l-2.5-0.5l-2-0.6l-1.5-1.5L247,335l-0.6-2.3l-0.5-2.8l-0.2-3.2
	L246,323.2z M232.4,329.1l0.5,2.8c4.7,19.4,40.2,18.2,43-1.8l0.3-4.2l-0.3-4.3c-3.1-18.7-35.6-18.8-42.1-3.1l-1.2,3.7l-0.5,4.2
	L232.4,329.1z M303.6,323.2l0.3-2.9l0.8-2.3c1.8-4.4,5-5.2,9.4-4.6l1.8,0.8l1.4,1.1l1.4,1.5l0.8,2.3l0.6,2.9l0.2,3.7l-0.2,3.9
	l-0.6,2.9l-0.6,2.3l-0.9,1.7l-1.1,1.2l-1.4,0.8l-1.1,0.5l-1.1,0.3l-0.9,0.2h-0.6l-2.6-0.5l-2-0.6l-1.4-1.5l-1.1-1.8l-0.8-2.3
	l-0.3-2.8l-0.3-3.2L303.6,323.2z M290,329.1l0.6,2.8c4.4,19.4,40.1,18.2,42.7-1.8l0.5-4.2l-0.5-4.3c-2.9-18.7-35.6-18.8-41.8-3.1
	l-1.4,3.7l-0.3,4.2L290,329.1z M367.9,313.8c5,0.1,8.6,3,8.8,8.2l0.3,3.4l-0.3,3.9c-0.7,5.1-1.6,7.9-6.8,9.2l-1.7,0.2h-5.7v-24.8
	H367.9z M349.8,307.7v37.5h18.3l3.9-0.5c9.4-0.7,17-6.8,18.2-16.3l0.2-1.7v-2.8c-0.8-9.3-7.1-14.5-16.2-15.9l-4.9-0.3h-5.1H349.8z
	 M401.5,307.7l12.2,37.5h7.6l8.6-23l8.5,23h7.4l12.3-37.5h-8.3l-6.2,21.1l-7.9-21.1h-7.1l-8.2,21.1l-5.9-21.1H401.5z M484.4,320.6
	l4.6,10.6h-9.4L484.4,320.6z M483,307.7l-18.3,37.5h8.8l3.4-7.9h14.8l3.4,7.9h13.7l-18.3-37.5H483z M538.8,313.8
	c11.6-1.5,10.1,10.1,3.5,10.5h-5.7v-10.5H538.8z M523.8,307.7v37.5h12.8V330h3.2l10,15.1h14.3l-13.4-17.4l1.4-0.6l1.7-0.8l1.8-1.1
	l1.5-1.4l1.5-1.7l0.9-2l0.3-2.6l-0.3-2.8l-1.1-2.2c-3.5-4-7.3-4.1-12-4.8l-3.4-0.2h-4H523.8z M599.2,313.8c5.3,0.4,8.5,2.5,9.1,8.2
	l0.2,3.4l-0.2,3.9c-0.8,4.9-1.8,8.2-7.1,9.2l-1.7,0.2H594v-24.8H599.2z M581.2,307.7v37.5h18.3l3.9-0.5c9.1-0.5,17.4-6.9,18.2-16.3
	l0.2-1.7v-2.8c-0.6-9.8-6.9-14.2-16.2-15.9l-4.6-0.3h-5.1H581.2z"/>
<path class="st1" d="M177.8,307.7l6,21.1l8.3-21.1h6.8l8,21.1l6.3-21.1h8.2l-12.2,37.5h-7.6l-8.3-23l-8.8,23h-7.4l-12.5-37.5H177.8z
	 M246,323.2l0.5-2.9l0.6-2.3c1.6-4.2,5.4-5.2,9.6-4.6l1.8,0.8l1.4,1.1l1.1,1.5l0.9,2.3l0.6,2.9l0.2,3.7l-0.2,3.9l-0.6,2.9l-0.8,2.3
	l-0.9,1.7l-1.1,1.2l-1.1,0.8l-1.1,0.5l-1.1,0.3l-0.9,0.2h-0.8l-2.5-0.5l-2-0.6l-1.5-1.5L247,335l-0.6-2.3l-0.5-2.8l-0.2-3.2
	L246,323.2z M232.4,329.1l0.5,2.8c4.7,19.4,40.2,18.2,43-1.8l0.3-4.2l-0.3-4.3c-3.1-18.7-35.6-18.8-42.1-3.1l-1.2,3.7l-0.5,4.2
	L232.4,329.1z M303.6,323.2l0.3-2.9l0.8-2.3c1.8-4.4,5-5.2,9.4-4.6l1.8,0.8l1.4,1.1l1.4,1.5l0.8,2.3l0.6,2.9l0.2,3.7l-0.2,3.9
	l-0.6,2.9l-0.6,2.3l-0.9,1.7l-1.1,1.2l-1.4,0.8l-1.1,0.5l-1.1,0.3l-0.9,0.2h-0.6l-2.6-0.5l-2-0.6l-1.4-1.5l-1.1-1.8l-0.8-2.3
	l-0.3-2.8l-0.3-3.2L303.6,323.2z M290,329.1l0.6,2.8c4.4,19.4,40.1,18.2,42.7-1.8l0.5-4.2l-0.5-4.3c-2.9-18.7-35.6-18.8-41.8-3.1
	l-1.4,3.7l-0.3,4.2L290,329.1z M367.9,313.8c5,0.1,8.6,3,8.8,8.2l0.3,3.4l-0.3,3.9c-0.7,5.1-1.6,7.9-6.8,9.2l-1.7,0.2h-5.7v-24.8
	H367.9z M349.8,307.7v37.5h18.3l3.9-0.5c9.4-0.7,17-6.8,18.2-16.3l0.2-1.7v-2.8c-0.8-9.3-7.1-14.5-16.2-15.9l-4.9-0.3h-5.1H349.8z
	 M401.5,307.7l12.2,37.5h7.6l8.6-23l8.5,23h7.4l12.3-37.5h-8.3l-6.2,21.1l-7.9-21.1h-7.1l-8.2,21.1l-5.9-21.1H401.5z M484.4,320.6
	l4.6,10.6h-9.4L484.4,320.6z M483,307.7l-18.3,37.5h8.8l3.4-7.9h14.8l3.4,7.9h13.7l-18.3-37.5H483z M538.8,313.8
	c11.6-1.5,10.1,10.1,3.5,10.5h-5.7v-10.5H538.8z M523.8,307.7v37.5h12.8V330h3.2l10,15.1h14.3l-13.4-17.4l1.4-0.6l1.7-0.8l1.8-1.1
	l1.5-1.4l1.5-1.7l0.9-2l0.3-2.6l-0.3-2.8l-1.1-2.2c-3.5-4-7.3-4.1-12-4.8l-3.4-0.2h-4H523.8z M599.2,313.8c5.3,0.4,8.5,2.5,9.1,8.2
	l0.2,3.4l-0.2,3.9c-0.8,4.9-1.8,8.2-7.1,9.2l-1.7,0.2H594v-24.8H599.2z M581.2,307.7v37.5h18.3l3.9-0.5c9.1-0.5,17.4-6.9,18.2-16.3
	l0.2-1.7v-2.8c-0.6-9.8-6.9-14.2-16.2-15.9l-4.6-0.3h-5.1H581.2z"/>
<path class="st2" d="M147.3,354.1h-1.8v-6.9H143v-1.5h6.6v1.5h-2.3V354.1z M159,345.6h-2.6l-1.4,6.6l-1.7-6.6h-2.6v8.5h1.7V347h0.2
	l1.5,7.1h1.5l1.7-7.1v7.1h1.7V345.6z M23.1,344.4l0.6,2.8l1.8,2.8l2.6,2.5l3.9,2.5l4.6,2.2l5.4,1.8l-0.8-3.1l-1.1-3.9l-1.2-4.5
	l-1.4-4.6l-3.4-10.2l-3.7,2l-3.1,2.2l-2.3,2.5l-1.4,2.5L23.1,344.4z M125,343.1l-0.6,2c-8.2,12.3-41.3,12.8-54.7,11.6l-4-0.5
	l0.5-1.5c3.4-12.8,7.3-25.5,10.6-38.4v-0.6l0.6,2.6c2.8,8.5,5.4,17.1,7.7,25.7l1.2,4.2l6.8-2.9l1.7-7.7l1.7-7.9l5.4,0.8l4.6,0.8
	l5.5,1.4l4.5,1.7l3.7,2l2.8,2l1.5,2.3L125,343.1z M74.4,288.7l-4,17.4l-4.5,17.1l-4.3,17.3l-5.9-22l-3.1-11.6L49.9,295L35.1,292
	l-13.4,3.9l13.3,2.9l2.9,7.9c5.1,15.7,10.6,32.8,14.3,49l1.7,6.2l8.3,1.1l9.1,0.8c17,1.1,42.4-0.6,57.8-8.6l4-2.5l2.9-2.5
	c10.3-12.9-15.3-20.7-23.7-22.2l-7.1-1.5l-7.7-0.9l5.5-22.3l5.9-22.7l-14-2.5l-5.9,1.5l14,2.3l-4.9,23.9l-5.4,23.9l-2.6-10.3
	l-2.8-10.5l-2.9-10.6L82,287l-14.3-2.6l-7.6,1.7L74.4,288.7z"/>
<path class="st3" d="M147.3,354.1h-1.8v-6.9H143v-1.5h6.6v1.5h-2.3V354.1z M159,345.6h-2.6l-1.4,6.6l-1.7-6.6h-2.6v8.5h1.7V347h0.2
	l1.5,7.1h1.5l1.7-7.1v7.1h1.7V345.6z M23.1,344.4l0.6,2.8l1.8,2.8l2.6,2.5l3.9,2.5l4.6,2.2l5.4,1.8l-0.8-3.1l-1.1-3.9l-1.2-4.5
	l-1.4-4.6l-3.4-10.2l-3.7,2l-3.1,2.2l-2.3,2.5l-1.4,2.5L23.1,344.4z M125,343.1l-0.6,2c-8.2,12.3-41.3,12.8-54.7,11.6l-4-0.5
	l0.5-1.5c3.4-12.8,7.3-25.5,10.6-38.4v-0.6l0.6,2.6c2.8,8.5,5.4,17.1,7.7,25.7l1.2,4.2l6.8-2.9l1.7-7.7l1.7-7.9l5.4,0.8l4.6,0.8
	l5.5,1.4l4.5,1.7l3.7,2l2.8,2l1.5,2.3L125,343.1z M74.4,288.7l-4,17.4l-4.5,17.1l-4.3,17.3l-5.9-22l-3.1-11.6L49.9,295L35.1,292
	l-13.4,3.9l13.3,2.9l2.9,7.9c5.1,15.7,10.6,32.8,14.3,49l1.7,6.2l8.3,1.1l9.1,0.8c17,1.1,42.4-0.6,57.8-8.6l4-2.5l2.9-2.5
	c10.3-12.9-15.3-20.7-23.7-22.2l-7.1-1.5l-7.7-0.9l5.5-22.3l5.9-22.7l-14-2.5l-5.9,1.5l14,2.3l-4.9,23.9l-5.4,23.9l-2.6-10.3
	l-2.8-10.5l-2.9-10.6L82,287l-14.3-2.6l-7.6,1.7L74.4,288.7z"/>
</svg>
